<?xml version="1.0" encoding="UTF-8" standalone="no"?>
<!-- Created with Inkscape (http://www.inkscape.org/) -->

<svg
   width="640"
   height="800"
   viewBox="0 0 169.33333 211.66667"
   version="1.1"
   id="svg1"
   xml:space="preserve"
   inkscape:version="1.3 (0e150ed6c4, 2023-07-21)"
   sodipodi:docname="main-portrait-demo.svg"
   inkscape:export-filename="main-portrait-demo.png"
   inkscape:export-xdpi="96"
   inkscape:export-ydpi="96"
   xmlns:inkscape="http://www.inkscape.org/namespaces/inkscape"
   xmlns:sodipodi="http://sodipodi.sourceforge.net/DTD/sodipodi-0.dtd"
   xmlns="http://www.w3.org/2000/svg"
   xmlns:svg="http://www.w3.org/2000/svg"><sodipodi:namedview
     id="namedview1"
     pagecolor="#ffffff"
     bordercolor="#000000"
     borderopacity="0.25"
     inkscape:showpageshadow="2"
     inkscape:pageopacity="0.0"
     inkscape:pagecheckerboard="0"
     inkscape:deskcolor="#d1d1d1"
     inkscape:document-units="mm"
     showgrid="true"
     inkscape:zoom="0.65834034"
     inkscape:cx="700.24571"
     inkscape:cy="341.00903"
     inkscape:window-width="1920"
     inkscape:window-height="974"
     inkscape:window-x="-11"
     inkscape:window-y="292"
     inkscape:window-maximized="1"
     inkscape:current-layer="layer1"><inkscape:grid
       id="grid1"
       units="px"
       originx="0"
       originy="0"
       spacingx="158.75"
       spacingy="82.020832"
       empcolor="#0099e5"
       empopacity="0.30196078"
       color="#0099e5"
       opacity="0.14901961"
       empspacing="5"
       dotted="false"
       gridanglex="30"
       gridanglez="30"
       visible="true" /></sodipodi:namedview><defs
     id="defs1"><filter
       style="color-interpolation-filters:sRGB"
       inkscape:label="Drop Shadow"
       id="filter2"
       x="-0.060889594"
       y="-0.039920822"
       width="1.1471499"
       height="1.0964752"><feFlood
         result="flood"
         in="SourceGraphic"
         flood-opacity="0.498039"
         flood-color="rgb(0,0,0)"
         id="feFlood1" /><feGaussianBlur
         result="blur"
         in="SourceGraphic"
         stdDeviation="3.000000"
         id="feGaussianBlur1" /><feOffset
         result="offset"
         in="blur"
         dx="3.000000"
         dy="3.000000"
         id="feOffset1" /><feComposite
         result="comp1"
         operator="in"
         in="flood"
         in2="offset"
         id="feComposite1" /><feComposite
         result="comp2"
         operator="over"
         in="SourceGraphic"
         in2="comp1"
         id="feComposite2" /></filter><filter
       style="color-interpolation-filters:sRGB"
       inkscape:label="Drop Shadow"
       id="filter4"
       x="-0.060889602"
       y="-0.011190756"
       width="1.1471499"
       height="1.0270443"><feFlood
         result="flood"
         in="SourceGraphic"
         flood-opacity="0.498039"
         flood-color="rgb(0,0,0)"
         id="feFlood2" /><feGaussianBlur
         result="blur"
         in="SourceGraphic"
         stdDeviation="3.000000"
         id="feGaussianBlur2" /><feOffset
         result="offset"
         in="blur"
         dx="3.000000"
         dy="3.000000"
         id="feOffset2" /><feComposite
         result="comp1"
         operator="in"
         in="flood"
         in2="offset"
         id="feComposite3" /><feComposite
         result="comp2"
         operator="over"
         in="SourceGraphic"
         in2="comp1"
         id="feComposite4" /></filter><filter
       style="color-interpolation-filters:sRGB"
       inkscape:label="Drop Shadow"
       id="filter6"
       x="-0.06103161"
       y="-0.029223453"
       width="1.1474931"
       height="1.0706233"><feFlood
         result="flood"
         in="SourceGraphic"
         flood-opacity="0.498039"
         flood-color="rgb(0,0,0)"
         id="feFlood3" /><feGaussianBlur
         result="blur"
         in="SourceGraphic"
         stdDeviation="3.000000"
         id="feGaussianBlur3" /><feOffset
         result="offset"
         in="blur"
         dx="3.000000"
         dy="3.000000"
         id="feOffset3" /><feComposite
         result="comp1"
         operator="in"
         in="flood"
         in2="offset"
         id="feComposite5" /><feComposite
         result="comp2"
         operator="over"
         in="SourceGraphic"
         in2="comp1"
         id="feComposite6" /></filter><filter
       style="color-interpolation-filters:sRGB"
       inkscape:label="Drop Shadow"
       id="filter8"
       x="-0.060095102"
       y="-0.02684918"
       width="1.1452298"
       height="1.0648855"><feFlood
         result="flood"
         in="SourceGraphic"
         flood-opacity="0.498039"
         flood-color="rgb(0,0,0)"
         id="feFlood6" /><feGaussianBlur
         result="blur"
         in="SourceGraphic"
         stdDeviation="3.000000"
         id="feGaussianBlur6" /><feOffset
         result="offset"
         in="blur"
         dx="3.000000"
         dy="3.000000"
         id="feOffset6" /><feComposite
         result="comp1"
         operator="in"
         in="flood"
         in2="offset"
         id="feComposite7" /><feComposite
         result="comp2"
         operator="over"
         in="SourceGraphic"
         in2="comp1"
         id="feComposite8" /></filter><filter
       style="color-interpolation-filters:sRGB"
       inkscape:label="Drop Shadow"
       id="filter10"
       x="-0.060284518"
       y="-0.032863788"
       width="1.1456876"
       height="1.0794208"><feFlood
         result="flood"
         in="SourceGraphic"
         flood-opacity="0.498039"
         flood-color="rgb(0,0,0)"
         id="feFlood4" /><feGaussianBlur
         result="blur"
         in="SourceGraphic"
         stdDeviation="3.000000"
         id="feGaussianBlur4" /><feOffset
         result="offset"
         in="blur"
         dx="3.000000"
         dy="3.000000"
         id="feOffset4" /><feComposite
         result="comp1"
         operator="in"
         in="flood"
         in2="offset"
         id="feComposite9" /><feComposite
         result="comp2"
         operator="over"
         in="SourceGraphic"
         in2="comp1"
         id="feComposite10" /></filter><filter
       style="color-interpolation-filters:sRGB"
       inkscape:label="Drop Shadow"
       id="filter12"
       x="-0.060284488"
       y="-0.041112743"
       width="1.1456875"
       height="1.0993558"><feFlood
         result="flood"
         in="SourceGraphic"
         flood-opacity="0.498039"
         flood-color="rgb(0,0,0)"
         id="feFlood10" /><feGaussianBlur
         result="blur"
         in="SourceGraphic"
         stdDeviation="3.000000"
         id="feGaussianBlur10" /><feOffset
         result="offset"
         in="blur"
         dx="3.000000"
         dy="3.000000"
         id="feOffset10" /><feComposite
         result="comp1"
         operator="in"
         in="flood"
         in2="offset"
         id="feComposite11" /><feComposite
         result="comp2"
         operator="over"
         in="SourceGraphic"
         in2="comp1"
         id="feComposite12" /></filter><filter
       style="color-interpolation-filters:sRGB"
       inkscape:label="Drop Shadow"
       id="filter14"
       x="-0.059685338"
       y="-0.0081647485"
       width="1.1442395"
       height="1.0197315"><feFlood
         result="flood"
         in="SourceGraphic"
         flood-opacity="0.498039"
         flood-color="rgb(0,0,0)"
         id="feFlood5" /><feGaussianBlur
         result="blur"
         in="SourceGraphic"
         stdDeviation="3.000000"
         id="feGaussianBlur5" /><feOffset
         result="offset"
         in="blur"
         dx="3.000000"
         dy="3.000000"
         id="feOffset5" /><feComposite
         result="comp1"
         operator="in"
         in="flood"
         in2="offset"
         id="feComposite13" /><feComposite
         result="comp2"
         operator="over"
         in="SourceGraphic"
         in2="comp1"
         id="feComposite14" /></filter><filter
       style="color-interpolation-filters:sRGB"
       inkscape:label="Drop Shadow"
       id="filter16"
       x="-0.059685338"
       y="-0.0081647485"
       width="1.1442395"
       height="1.0197315"><feFlood
         result="flood"
         in="SourceGraphic"
         flood-opacity="0.498039"
         flood-color="rgb(0,0,0)"
         id="feFlood14" /><feGaussianBlur
         result="blur"
         in="SourceGraphic"
         stdDeviation="3.000000"
         id="feGaussianBlur14" /><feOffset
         result="offset"
         in="blur"
         dx="3.000000"
         dy="3.000000"
         id="feOffset14" /><feComposite
         result="comp1"
         operator="in"
         in="flood"
         in2="offset"
         id="feComposite15" /><feComposite
         result="comp2"
         operator="over"
         in="SourceGraphic"
         in2="comp1"
         id="feComposite16" /></filter><filter
       style="color-interpolation-filters:sRGB"
       inkscape:label="Drop Shadow"
       id="filter18"
       x="-0.05940184"
       y="-0.012036279"
       width="1.1435544"
       height="1.0290877"><feFlood
         result="flood"
         in="SourceGraphic"
         flood-opacity="0.498039"
         flood-color="rgb(0,0,0)"
         id="feFlood16" /><feGaussianBlur
         result="blur"
         in="SourceGraphic"
         stdDeviation="3.000000"
         id="feGaussianBlur16" /><feOffset
         result="offset"
         in="blur"
         dx="3.000000"
         dy="3.000000"
         id="feOffset16" /><feComposite
         result="comp1"
         operator="in"
         in="flood"
         in2="offset"
         id="feComposite17" /><feComposite
         result="comp2"
         operator="over"
         in="SourceGraphic"
         in2="comp1"
         id="feComposite18" /></filter><filter
       style="color-interpolation-filters:sRGB"
       inkscape:label="Drop Shadow"
       id="filter20"
       x="-0.05940184"
       y="-0.012036279"
       width="1.1435544"
       height="1.0290877"><feFlood
         result="flood"
         in="SourceGraphic"
         flood-opacity="0.498039"
         flood-color="rgb(0,0,0)"
         id="feFlood18" /><feGaussianBlur
         result="blur"
         in="SourceGraphic"
         stdDeviation="3.000000"
         id="feGaussianBlur18" /><feOffset
         result="offset"
         in="blur"
         dx="3.000000"
         dy="3.000000"
         id="feOffset18" /><feComposite
         result="comp1"
         operator="in"
         in="flood"
         in2="offset"
         id="feComposite19" /><feComposite
         result="comp2"
         operator="over"
         in="SourceGraphic"
         in2="comp1"
         id="feComposite20" /></filter></defs><g
     inkscape:label="Layer 1"
     inkscape:groupmode="layer"
     id="layer1"><rect
       style="fill:#999999;stroke:#000000;stroke-width:0"
       id="rect1"
       width="169.33333"
       height="211.66666"
       x="5e-07"
       y="5e-07"
       rx="1731.3617"
       ry="0" /><path
       style="fill:#000000;stroke-width:0.999997"
       d="m 44.663032,105.3316 c -2.60104,-0.48 -4.33277,-1.55417 -5.7855,-3.58865 -0.32828,-0.45973 -1.21483,-2.023144 -1.97013,-3.474242 -1.55924,-2.99564 -2.50271,-4.43668 -3.4801,-5.31545 -1.62723,-1.46302 -3.86572,-2.36585 -6.24101,-2.5171 l -1.41479,-0.0901 1.38911,-1.71808 c 2.02715,-2.50724 3.36159,-4.59773 3.75079,-5.87586 0.11251,-0.36948 0.11342,-0.36934 -0.56044,-0.0835 -0.68167,0.28913 -3.5325,0.41413 -4.58689,0.20114 -0.41579,-0.084 -1.10918,-0.21535 -1.5409,-0.29192 -0.86443,-0.15331 -1.4298,-0.32855 -4.35489,-1.3498 -1.70175,-0.59413 -2.20016,-0.8411 -3.56273,-1.7653 -1.92405,-1.30504 -4.5373,-3.83973 -5.08548,-4.9326 -0.1543,-0.30763 -0.49819,-0.81981 -0.76417,-1.13817 -0.6122498,-0.73282 -2.2084498,-3.62394 -2.4061498,-4.35814 -0.0823,-0.3056 -0.45722,-1.48529 -0.83318,-2.62151 -0.37595,-1.13623 -0.84132,-2.733543 -1.03414,-3.549582 -0.19281,-0.81604 -0.46691,-1.746702 -0.60909,-2.068137 -0.21157,-0.478284 -0.26467,-0.980656 -0.29237,-2.766064 -0.02,-1.290148 0.0286,-2.406298 0.11899,-2.731424 0.084,-0.302384 0.1543,-1.021272 0.15611,-1.597531 0.002,-0.718163 0.0851,-1.236989 0.26335,-1.649364 0.17661,-0.40856 0.28993,-1.108857 0.35311,-2.182264 0.10823,-1.838563 0.2924,-2.736607 0.94632,-4.614175 0.26142,-0.750624 0.75486,-2.168836 1.09653,-3.151583 0.73829,-2.123495 1.12869,-2.855685 2.0768898,-3.895136 0.39037,-0.427934 0.98197,-1.259778 1.31467,-1.84854 0.33271,-0.588763 0.98909,-1.547456 1.45862,-2.13043 0.8175,-1.014995 3.40917,-3.459131 4.7686,-4.497124 0.72078,-0.550362 1.95376,-1.163908 2.34311,-1.16596 0.14008,-7.28e-4 0.56435,-0.279744 0.9428,-0.620012 0.81617,-0.733806 1.96671,-1.303232 3.4757,-1.72018 0.60476,-0.167104 1.4719,-0.472028 1.92697,-0.677609 0.45507,-0.20558 1.75395,-0.572677 2.88639,-0.815771 1.13244,-0.243094 2.46541,-0.562686 2.96214,-0.710203 0.49674,-0.147518 1.12227,-0.268215 1.39007,-0.268215 0.26781,0 0.82008,-0.06589 1.22728,-0.146432 0.40719,-0.08054 1.85368,-0.162496 3.2144,-0.182132 1.6888,-0.02437 2.5911,-0.09263 2.84285,-0.215067 0.30994,-0.150734 0.58149,-0.141074 1.70105,0.06051 0.73351,0.132072 1.64784,0.20955 2.03448,0.1724 0.84812,-0.08149 2.57702,0.198985 3.02141,0.490166 0.24029,0.15744 0.53686,0.191258 1.17213,0.133654 0.75803,-0.06873 1.01804,-0.0161 2.39268,0.484362 0.84823,0.308813 2.12982,0.723165 2.84798,0.920782 4.90675,1.350194 8.6507,4.157872 11.00868,8.25568 2.35994,4.101185 2.78508,5.304412 2.78934,7.894196 0.003,1.538154 -0.0132,1.621278 -0.5871,3.092558 -0.6236,1.598828 -0.84857,2.249053 -1.10437,3.191924 -0.0884,0.325799 -0.48483,0.988677 -0.90371,1.511023 -1.15512,1.44049 -1.1443,1.397255 -0.58286,2.329597 1.26359,2.098307 2.25366,4.485133 2.80039,6.750999 0.44372,1.83898 0.39402,2.568896 -0.28694,4.213913 l -0.50539,1.220903 0.22334,0.699346 c 0.52411,1.641172 1.32021,2.971952 2.54797,4.259252 1.40597,1.47417 1.69056,1.96269 1.70335,2.92403 0.0133,0.99884 -0.29503,1.35048 -1.9248,2.19523 -1.30642,0.67716 -1.36626,0.72794 -1.40659,1.19364 -0.0375,0.43228 0.0582,0.59566 0.85904,1.46838 1.15124,1.25448 1.16876,1.49148 0.17957,2.42915 -1.19473,1.13252 -1.17123,1.05581 -0.51037,1.66603 0.83431,0.77037 0.79395,1.0966 -0.26148,2.11351 -0.95609,0.92119 -1.08333,1.24605 -0.86258,2.20233 0.31321,1.35695 0.12314,2.31521 -0.62305,3.14116 -1.27503,1.41129 -6.0406,1.90047 -10.6845,1.09673 -1.91503,-0.33144 -1.8657,-0.34742 -2.91047,0.94263 -1.47437,1.8205 -2.17312,3.33285 -2.99119,6.47392 -0.55356,2.12547 -0.73049,3.305592 -0.95823,6.391292 l -0.16231,2.19916 -0.61851,0.0929 c -0.97373,0.14625 -2.72869,0.10488 -3.7798,-0.0891 z m 0.90133,-18.387362 c 1.52226,-1.17427 2.61613,-4.35596 2.63091,-7.65238 0.008,-1.67193 -0.18987,-2.80078 -0.66757,-3.8181 -0.31154,-0.66347 -0.99919,-1.41518 -1.29457,-1.41518 -0.16653,0 -0.16494,0.92239 0.002,1.02543 0.0707,0.0438 0.23323,0.54949 0.36102,1.12392 0.32554,1.46322 0.21616,5.00281 -0.20328,6.57854 -0.57503,2.16018 -1.37041,3.38434 -2.0573,3.16633 -0.14984,-0.0475 -0.41074,-0.37217 -0.57979,-0.72136 -0.25391,-0.52452 -0.31834,-0.93928 -0.37056,-2.38565 -0.11485,-3.1803 0.67939,-6.64358 1.74426,-7.60585 0.35363,-0.31957 0.4103,-1.18136 0.0777,-1.18136 -0.41961,0 -1.57251,1.26273 -2.05923,2.25543 -0.84602,1.72546 -1.07308,2.86386 -1.08536,5.4416 -0.0115,2.40203 0.0986,3.08261 0.69144,4.27732 0.69556,1.40165 1.73713,1.73938 2.81058,0.91131 z"
       id="path1" /></g></svg>
